<?xml version="1.0" encoding="UTF-8"?>
<svg id="mall-svg-element" xmlns="http://www.w3.org/2000/svg" viewBox="0 0 403.22 475.67">
  <defs>
    <style>
      .store-shape {
        stroke: rgb(0, 0, 0);
        stroke-width: 1.2px;
        transition: fill 0.3s ease, opacity 0.3s ease;
        cursor: pointer;
      }
      .store-shape:hover {
        opacity: 0.8;
      }
      .store-text {
        font-family: Arial, sans-serif;
        font-size: 10px;
        text-anchor: middle;
        dominant-baseline: middle;
        pointer-events: none; /* So text doesn't interfere with shape click */
        fill: white;
        font-weight: bold;
      }
      .dimmed {
        opacity: 0.3;
        fill: #ccc !important; /* Grey out, important to override category color */
      }
    </style>
  </defs>

  <!-- Space Outline -->
  <path fill="rgb(12, 12, 12)"  d="m.5.5h174.22v14.22h228v261.33h-43.56l-.44,61.78-82.67,77.33.44,60h-128.44l-.44-43.11L9.83,311.61c.3-69.33.59-138.67.89-208-3.41.06-6.81.12-10.22.18V.5Z"/>

  <!-- Entrance Label -->
  <text x="203.8" y="460" class="map-feature-label entrance-label" style="fill:rgb(37, 225, 50); text-anchor: middle;">Entrance</text>
  <!-- You might use an icon + text, or just text -->
  <!-- <path d="..." class="entrance-icon" fill="#E0E0E0"/> -->
  <text x="204" y="233" class="map-feature-label" style="fill:rgb(255, 255, 255); text-anchor: middle;">Event Space</text>

  <text x="377" y="81" class="community-space-label" style="fill:rgb(255, 255, 255); text-anchor: middle;">Community Space</text>
  <!-- <rect id="A57" class="store-shape" x="358.96" y="69.39" width="43.76" height="19.56"/> -->

  <!-- Vendor Zones -->
  <rect id="D50" class="store-shape" x=".5" y="28.94" width="54.22" height="40.44"/>
  <rect id="D48" class="store-shape" x=".5" y="69.39" width="54.22" height="19.56"/>
  <polygon id="D46" class="store-shape" points="54.72 103.99 .5 103.79 .5 88.94 54.72 88.94 54.72 103.99"/>
  <rect id="D27" class="store-shape" x="76.32" y="48.32" width="20.33" height="21.07"/>
  <rect id="D25" class="store-shape" x="96.65" y="48.32" width="19.56" height="21.07"/>
  <rect id="D23" class="store-shape" x="76.32" y="96.35" width="43.73" height="15.05"/>
  <rect id="D21" class="store-shape" x="76.32" y="111.4" width="43.73" height="25.1"/>
  <rect id="D19" class="store-shape" x="76.32" y="136.5" width="43.73" height="42.31"/>
  <rect id="C46" class="store-shape" x="120.06" y="116.45" width="33.42" height="48.85"/>
  <rect id="C44" class="store-shape" x="120.06" y="165.3" width="33.42" height="13.51"/>
  <rect id="D17" class="store-shape" x="76.32" y="178.81" width="21.87" height="19.56"/>
  <polygon id="C40" class="store-shape" points="153.48 217.92 76.32 217.92 76.32 198.37 98.19 198.37 98.19 178.81 153.48 178.81 153.48 217.92"/>
  <rect id="D15" class="store-shape" x="76.32" y="217.92" width="43.73" height="19.69"/>
  <rect id="C34" class="store-shape" x="120.06" y="217.92" width="33.42" height="19.69"/>
  <rect id="D13" class="store-shape" x="76.32" y="237.61" width="43.73" height="19.07"/>
  <rect id="C30" class="store-shape" x="120.06" y="237.61" width="33.42" height="19.07"/>
  <rect id="D11" class="store-shape" x="76.32" y="256.68" width="43.73" height="19.2"/>
  <rect id="C26" class="store-shape" x="120.06" y="256.68" width="33.42" height="19.2"/>
  <rect id="D9" class="store-shape" x="76.32" y="275.88" width="43.73" height="14.58"/>
  <rect id="C22" class="store-shape" x="120.06" y="275.88" width="33.42" height="14.58"/>
  <rect id="D7" class="store-shape" x="76.32" y="290.46" width="43.73" height="14.04"/>
  <rect id="D5" class="store-shape" x="76.32" y="304.5" width="43.73" height="13.69"/>
  <rect id="C16" class="store-shape" x="120.06" y="304.5" width="33.42" height="13.69"/>
  <polygon id="D1" class="store-shape" points="120.06 357.66 76.32 318.19 120.06 318.19 120.06 357.66"/>
  <polygon id="C10" class="store-shape" points="153.48 390.54 120.06 357.66 120.06 318.19 153.48 318.19 153.48 390.54"/>
  <rect id="D40" class="store-shape" x="10.55" y="142.9" width="21.86" height="22.4"/>
  <rect id="D38" class="store-shape" x="10.55" y="165.3" width="21.86" height="13.51"/>
  <polygon id="D32" class="store-shape" points="32.41 198.37 10.32 198.37 10.55 178.81 32.41 178.81 32.41 198.37"/>
  <polygon id="D28" class="store-shape" points="32.41 217.92 10.55 217.92 10.32 198.37 32.41 198.37 32.41 217.92"/>
  <polygon id="D20" class="store-shape" points="32.41 237.61 10.32 237.61 9.99 255.61 32.41 255.61 32.41 237.61"/>
  <rect id="D14" class="store-shape" x="9.99" y="275.88" width="22.43" height="14.58"/>
  <polygon id="D10" class="store-shape" points="32.41 304.5 10.32 304.32 9.99 290.46 32.41 290.46 32.41 304.5"/>
  <polygon id="D6" class="store-shape" points="95.11 386.16 107.61 372.77 34.01 308.23 21.97 322.22 95.11 386.16"/>
  <polygon id="D2" class="store-shape" points="148.86 407.61 136.07 421.97 99.09 389.64 112.59 374.72 148.86 407.61"/>
  <polygon id="C2" class="store-shape" points="175.17 475.17 175.17 435.52 147.65 435.52 148.06 475.17 175.17 475.17"/>
  <path id="C6" class="store-shape" d="m147.65,435.52c-.07-6.7-.14-13.39-.21-20.09h27.73v20.09h-27.52,0Z"/>
  <rect id="B57" class="store-shape" x="276.32" y="14.72" width="61.21" height="14.04"/>
  <rect id="B46" class="store-shape" x="211.08" y="14.72" width="43.38" height="14.04"/>
  <rect id="C58" class="store-shape" x="174.72" y="14.72" width="36.36" height="14.04"/>
  <rect id="C60" class="store-shape" x="153.48" y=".5" width="21.24" height="28.27"/>
  <rect id="C62" class="store-shape" x="133.09" y=".5" width="20.39" height="28.27"/>
  <rect id="C64" class="store-shape" x="113.24" y=".5" width="19.85" height="28.27"/>
  <rect id="D33" class="store-shape" x="93.69" y=".5" width="19.56" height="28.27"/>
  <rect id="B18" class="store-shape" x="175.17" y="141.83" width="57.42" height="36.98"/>
  <rect id="C29" class="store-shape" x="175.17" y="123.88" width="28.71" height="17.96"/>
  <rect id="B2" class="store-shape" x="175.17" y="337.92" width="57.42" height="58.67"/>
  <rect id="B8" class="store-shape" x="175.17" y="304.5" width="57.42" height="33.42"/>
  <rect id="B12" class="store-shape" x="175.17" y="276.06" width="57.42" height="28.44"/>
  <polygon id="A2" class="store-shape" points="254.4 385.03 308.21 335.61 308.21 318.19 254.4 318.19 254.4 385.03"/>
  <rect id="B1" class="store-shape" x="254.54" y="304.5" width="21.96" height="13.69"/>
  <rect id="A6" class="store-shape" x="276.5" y="304.5" width="31.71" height="13.69"/>
  <rect id="B9" class="store-shape" x="254.4" y="276.06" width="22.1" height="14.4"/>
  <polygon id="B15" class="store-shape" points="254.4 256.68 298.01 256.68 298.01 275.88 254.4 276.06 254.4 256.68"/>
  <rect id="A14" class="store-shape" x="298.01" y="256.68" width="39.52" height="19.2"/>
  <polygon id="B19" class="store-shape" points="254.4 237.61 298.01 237.83 298.01 256.68 254.4 256.68 254.4 237.61"/>
  <polygon id="A16" class="store-shape" points="337.53 237.61 298.01 237.83 298.01 256.68 337.53 256.68 337.53 237.61"/>
  <polygon id="B25" class="store-shape" points="254.4 217.92 298.01 217.92 298.01 237.83 254.4 237.61 254.4 217.92"/>
  <polygon id="A18" class="store-shape" points="337.53 217.92 298.01 217.92 298.01 237.83 337.53 237.61 337.53 217.92"/>
  <polygon id="B29" class="store-shape" points="336.77 178.81 254.4 178.81 254.4 217.92 337.53 217.92 336.77 178.81"/>
  <rect id="B33" class="store-shape" x="254.4" y="142.9" width="43.61" height="35.91"/>
  <rect id="A26" class="store-shape" x="298.01" y="142.9" width="38.76" height="35.91"/>
  <rect id="B41" class="store-shape" x="254.4" y="123.88" width="43.61" height="19.02"/>
  <rect id="A28" class="store-shape" x="298.01" y="123.88" width="38.76" height="19.02"/>
  <polygon id="B45" class="store-shape" points="254.4 103.99 255.17 103.99 298.01 103.99 298.01 123.88 254.4 123.88 254.4 103.99"/>
  <polygon id="B47" class="store-shape" points="254.46 88.94 318.1 88.94 318.28 103.99 254.4 103.99 254.46 88.94"/>
  <rect id="B53" class="store-shape" x="254.46" y="69.39" width="43.56" height="19.56"/>
  <polygon id="A1" class="store-shape" points="232.59 475.17 232.59 435.52 276.21 435.52 276.5 475.17 232.59 475.17"/>
  <path id="A9" class="store-shape" d="m298.01,373.12c-.01,7.18-.03,14.36-.04,21.54-7.31,6.83-14.61,13.67-21.92,20.5.07-7.24.14-14.48.21-21.72,7.25-6.78,14.5-13.55,21.75-20.33h0Z"/>
  <path id="A15" class="store-shape" d="m318.41,375.55v-21.18l-20.4,18.76v3.38c-.01,6.05-.03,12.11-.04,18.16,6.81-6.37,13.62-12.74,20.43-19.12h.01Z"/>
  <polygon id="A19" class="store-shape" points="337.53 357.66 337.53 337.92 318.41 354.37 318.41 375.55 337.53 357.66"/>
  <polygon id="A27" class="store-shape" points="358.96 304.5 337.53 304.5 337.53 357.66 358.72 337.83 358.96 304.5"/>
  <rect id="A29" class="store-shape" x="337.53" y="290.46" width="21.43" height="14.04"/>
  <rect id="A33" class="store-shape" x="358.96" y="256.83" width="43.76" height="19.22"/>
  <rect id="A39" class="store-shape" x="358.96" y="217.92" width="43.76" height="19.69"/>
  <rect id="A41" class="store-shape" x="358.96" y="198.37" width="43.76" height="19.56"/>
  <rect id="A55" class="store-shape" x="358.96" y="88.94" width="43.76" height="52.89"/>
  <polygon id="A65" class="store-shape" points="358.96 28.77 402.72 28.94 402.72 69.39 358.96 69.39 358.96 28.77"/>
  <rect id="A43" class="store-shape" x="358.96" y="141.83" width="43.76" height="56.53"/>
  <rect id="D18" class="store-shape" x="9.99" y="255.61" width="22.43" height="20.27"/>
  <rect id="C18" class="store-shape" x="120.06" y="290.46" width="33.42" height="14.04"/>
  <rect id="C52" class="store-shape" x="76.32" y="69.39" width="77.16" height="26.97"/>
  <rect id="C54" class="store-shape" x="135.46" y="48.32" width="18.01" height="21.07"/>
  <rect id="C56" class="store-shape" x="116.2" y="48.32" width="19.26" height="21.07"/>
  <polygon id="D37" class="store-shape" points="73.83 28.94 93.69 28.77 93.69 .5 73.83 .5 73.83 28.94"/>
  <rect id="C50" class="store-shape" x="120.06" y="96.37" width="33.42" height="20.08"/>
  <rect id="A35" class="store-shape" x="358.96" y="237.61" width="43.76" height="19.22"/>
  <polygon id="B5" class="store-shape" points="254.4 290.46 254.54 304.5 308.21 304.5 308.21 276.06 276.5 276.06 276.5 290.46 254.4 290.46"/>

  <!-- Harcode a center for this shape -->
  <polygon id="A40" class="store-shape" points="298.02 69.39 298.02 88.95 318.1 88.94 318.28 103.99 298.01 103.99 298.01 123.88 336.77 123.88 336.77 69.39 298.02 69.39"/>
  <!-- <circle id="A40-label-anchor" cx="327" cy="97" r="1" fill="none" stroke="none" pointer-events="none" /> -->
  <circle id="A40-label-anchor" cx="318" cy="114" r="1" fill="none" stroke="none" pointer-events="none" />
  <!-- <circle id="A40-label-anchor" cx="318" cy="79" r="1" fill="none" stroke="none" pointer-events="none" /> -->

  <!-- Harcode a center for this shape -->
  <path id="A5" class="store-shape" d="m254.54,415.43h-21.96v20.09h43.62l-.15-20.36c.07-7.24.14-14.48.21-21.72-7.24,7.33-14.48,14.66-21.72,21.99Z"/>
  <!-- Change fill to white to see on map, change x and y to center -->
  <circle id="A5-label-anchor" cx="255" cy="425" r="1" fill="none" stroke="none" pointer-events="none" />

  <!-- Harcode a center for this shape -->
  <polygon id="B30" class="store-shape" points="232.59 48.32 203.88 48.32 203.88 88.94 193.12 88.94 193.12 123.88 203.88 123.88 203.88 141.84 232.59 141.84 232.59 123.88 232.59 48.32"/>
  <circle id="B30-label-anchor" cx="214" cy="108" r="1" fill="none" stroke="none" pointer-events="none" />

  <!-- Harcode a center for this shape -->
  <polygon id="C41" class="store-shape" points="175.17 48.32 203.88 48.32 203.88 88.94 193.12 88.94 193.12 123.88 175.17 123.88 175.17 48.32"/>
  <circle id="C41-label-anchor" cx="189" cy="70" r="1" fill="none" stroke="none" pointer-events="none" />
</svg>